<?xml version="1.0" encoding="UTF-8" standalone="no"?>
<svg
   xmlns:osb="http://www.openswatchbook.org/uri/2009/osb"
   xmlns:dc="http://purl.org/dc/elements/1.1/"
   xmlns:cc="http://creativecommons.org/ns#"
   xmlns:rdf="http://www.w3.org/1999/02/22-rdf-syntax-ns#"
   xmlns:svg="http://www.w3.org/2000/svg"
   xmlns="http://www.w3.org/2000/svg"
   xmlns:sodipodi="http://sodipodi.sourceforge.net/DTD/sodipodi-0.dtd"
   xmlns:inkscape="http://www.inkscape.org/namespaces/inkscape"
   version="1.0"
   width="5000.000000pt"
   height="5000.000000pt"
   viewBox="0 0 5000.000000 5000.000000"
   preserveAspectRatio="xMidYMid meet"
   id="svg24"
   sodipodi:docname="Concepts-neu.svg"
   inkscape:version="0.92.2 (5c3e80d, 2017-08-06)">
  <metadata
     id="metadata30">
    <rdf:RDF>
      <cc:Work
         rdf:about="">
        <dc:format>image/svg+xml</dc:format>
        <dc:type
           rdf:resource="http://purl.org/dc/dcmitype/StillImage" />
      </cc:Work>
    </rdf:RDF>
  </metadata>
  <defs
     id="defs28">
    <linearGradient
       id="linearGradient2300"
       osb:paint="solid">
      <stop
         style="stop-color:#000000;stop-opacity:1;"
         offset="0"
         id="stop2298" />
    </linearGradient>
  </defs>
  <sodipodi:namedview
     pagecolor="#ffffff"
     bordercolor="#666666"
     borderopacity="1"
     objecttolerance="10"
     gridtolerance="10"
     guidetolerance="10"
     inkscape:pageopacity="0"
     inkscape:pageshadow="2"
     inkscape:window-width="1920"
     inkscape:window-height="1027"
     id="namedview26"
     showgrid="false"
     inkscape:zoom="0.0708"
     inkscape:cx="9327.3937"
     inkscape:cy="5163.568"
     inkscape:window-x="-8"
     inkscape:window-y="22"
     inkscape:window-maximized="1"
     inkscape:current-layer="svg24" />
  <g
     transform="matrix(0.19961426,0,0,-0.19961426,-2267.6078,6423.482)"
     id="g22"
     style="fill:#000000;stroke:none">
    <path
       d="m 23425,32154 c -447,-22 -746,-46 -1063,-84 -2082,-253 -4045,-1019 -5765,-2249 -909,-650 -1773,-1471 -2482,-2356 -1019,-1273 -1788,-2751 -2240,-4308 -260,-898 -411,-1773 -477,-2772 -17,-252 -17,-1198 0,-1450 82,-1243 304,-2343 694,-3445 82,-230 244,-648 258,-663 4,-5 42,-1 83,7 69,14 647,16 5869,16 5048,0 5802,-2 5863,-15 179,-37 336,-157 414,-316 67,-137 85,-257 56,-394 -45,-217 -202,-387 -425,-462 -53,-17 -245,-18 -5671,-23 l -5616,-5 112,-195 c 137,-239 293,-491 440,-710 l 110,-165 1290,-2 c 710,-2 3279,1 5710,6 l 4420,9 134,21 c 607,98 1157,367 1573,769 530,513 868,1198 938,1901 13,135 13,429 -1,567 -77,783 -511,1575 -1134,2073 -133,106 -318,221 -499,311 -311,153 -534,224 -906,286 -81,14 -259,17 -1200,24 -1168,8 -1243,11 -1583,60 -989,145 -1952,594 -2719,1269 -148,131 -412,399 -527,536 -289,346 -544,748 -727,1147 -257,558 -397,1073 -461,1698 -23,228 -23,770 1,1000 67,666 212,1182 491,1756 263,541 564,970 979,1393 425,432 861,749 1406,1020 596,296 1126,450 1821,528 143,16 489,18 4897,23 l 4742,5 -127,110 c -1274,1107 -2709,1929 -4279,2450 -1028,342 -2054,539 -3199,615 -155,11 -1059,21 -1200,14 z"
       id="path18"
       style="fill:#552e74;fill-opacity:1"
       inkscape:connector-curvature="0" />
    <path
       d="m 25940,26720 c -3416,-7 -3159,-2 -3463,-66 -674,-142 -1280,-510 -1702,-1033 -571,-707 -789,-1654 -589,-2549 92,-414 300,-840 580,-1192 96,-120 361,-381 479,-471 423,-322 879,-519 1391,-600 135,-22 171,-22 1234,-29 1106,-8 1187,-10 1501,-50 972,-122 1935,-553 2692,-1205 656,-565 1180,-1327 1497,-2175 385,-1032 423,-2209 105,-3284 -86,-292 -187,-546 -336,-846 -500,-1005 -1280,-1792 -2279,-2300 -655,-332 -1308,-510 -2060,-561 -102,-6 -1746,-12 -4796,-16 l -4640,-6 45,-41 c 175,-160 538,-456 806,-656 1873,-1397 4071,-2234 6395,-2434 397,-35 557,-41 1080,-41 523,0 683,6 1080,41 2324,200 4522,1037 6395,2434 500,373 882,705 1361,1184 479,479 811,861 1184,1361 1397,1873 2234,4071 2434,6395 35,397 41,557 41,1080 0,523 -6,683 -41,1080 -97,1132 -349,2252 -744,3303 -44,118 -97,255 -118,305 l -38,92 -5869,3 -5870,2 -80,28 c -187,66 -317,197 -382,384 -23,66 -27,94 -27,188 0,94 4,122 27,188 65,187 195,318 382,384 l 80,28 5578,3 c 3067,1 5577,5 5577,8 0,12 -238,420 -343,589 -58,94 -152,240 -209,325 l -103,155 h -2575 c -1416,0 -3972,-2 -5680,-5 z"
       id="path20"
       style="fill:#882d60;fill-opacity:1"
       inkscape:connector-curvature="0" />
  </g>
</svg>
